HIERARCHY
ROOT Hips
{
  OFFSET 279.157 85.6768 304.565
  CHANNELS 6 Xposition Yposition Zposition Zrotation Xrotation Yrotation
  JOINT LeftUpLeg
  {
    OFFSET 8.64259 1.95398 -2.38835
    CHANNELS 3 Zrotation Xrotation Yrotation
    JOINT LeftLeg
    {
      OFFSET 43.7702 0 0
      CHANNELS 3 Zrotation Xrotation Yrotation
      JOINT LeftFoot
      {
        OFFSET 40.6238 0 0
        CHANNELS 3 Zrotation Xrotation Yrotation
        JOINT LeftToeBase
        {
          OFFSET 12.7242 0 0
          CHANNELS 3 Zrotation Xrotation Yrotation
          End Site
          {
            OFFSET 0 0 0
          }
        }
      }
    }
  }
  JOINT RightUpLeg
  {
    OFFSET -8.2249 1.95398 -2.59336
    CHANNELS 3 Zrotation Xrotation Yrotation
    JOINT RightLeg
    {
      OFFSET 43.5653 0 0
      CHANNELS 3 Zrotation Xrotation Yrotation
      JOINT RightFoot
      {
        OFFSET 40.6238 0 0
        CHANNELS 3 Zrotation Xrotation Yrotation
        JOINT RightToeBase
        {
          OFFSET 12.7242 0 0
          CHANNELS 3 Zrotation Xrotation Yrotation
          End Site
          {
            OFFSET 0 0 0
          }
        }
      }
    }
  }
  JOINT Spine
  {
    OFFSET 0.165834 0.87714 6.61349
    CHANNELS 3 Zrotation Xrotation Yrotation
    JOINT Spine1
    {
      OFFSET 7.38963 1.71661e-005 0
      CHANNELS 3 Zrotation Xrotation Yrotation
      JOINT Spine2
      {
        OFFSET 11.9445 1.14441e-005 0
        CHANNELS 3 Zrotation Xrotation Yrotation
        JOINT Spine3
        {
          OFFSET 14.7254 4.19617e-005 0
          CHANNELS 3 Zrotation Xrotation Yrotation
          JOINT Spine4
          {
            OFFSET 10.9679 0 0
            CHANNELS 3 Zrotation Xrotation Yrotation
            JOINT RightShoulder
            {
              OFFSET 2.46616 -1.6653 3.69651
              CHANNELS 3 Zrotation Xrotation Yrotation
              JOINT RightArm
              {
                OFFSET 13.0012 0 0
                CHANNELS 3 Zrotation Xrotation Yrotation
                JOINT RightForeArm
                {
                  OFFSET 28.7848 1.52588e-005 0
                  CHANNELS 3 Zrotation Xrotation Yrotation
                  JOINT RightHand
                  {
                    OFFSET 26.5688 1.52588e-005 0
                    CHANNELS 3 Zrotation Xrotation Yrotation
                    End Site
                    {
                      OFFSET 0 0 0
                    }
                  }
                }
              }
            }
            JOINT LeftShoulder
            {
              OFFSET 2.38034 -1.29275 -3.7523
              CHANNELS 3 Zrotation Xrotation Yrotation
              JOINT LeftArm
              {
                OFFSET 16.3182 6.10351e-005 0
                CHANNELS 3 Zrotation Xrotation Yrotation
                JOINT LeftForeArm
                {
                  OFFSET 27.0901 0 0
                  CHANNELS 3 Zrotation Xrotation Yrotation
                  JOINT LeftHand
                  {
                    OFFSET 24.5451 1.52588e-005 0
                    CHANNELS 3 Zrotation Xrotation Yrotation
                    End Site
                    {
                      OFFSET 0 0 0
                    }
                  }
                }
              }
            }
            JOINT Neck
            {
              OFFSET 5.0226 -0.0266342 0
              CHANNELS 3 Zrotation Xrotation Yrotation
              JOINT Head
              {
                OFFSET 6.69364 2.86102e-005 0
                CHANNELS 3 Zrotation Xrotation Yrotation
                End Site
                {
                  OFFSET 0 0 0
                }
              }
            }
          }
        }
      }
    }
  }
}
MOTION
Frames:	18
Frame Time:	0.0416667
15.7197 100.02 -31.7138 -132.499 -77.6717 -134.997 -174.285 -3.03305 84.5567 -23.5119 4.44804 -2.23313 77.13 8.81711 -1.43953 15.5208 -10.0012 6.89949 178.588 14.635 90.0779 -17.7093 -17.4605 -2.47046 59.3083 -0.894027 -0.652477 24.9656 0.970175 2.07401 -0.0791506 8.17458 -89.7591 10.5245 -0.0469421 0.482975 -1.1465 -0.0256409 0.484562 -23.681 -0.189923 0.446537 -3.66837 -0.189923 0.446533 88.2976 -31.8241 -109.351 43.6791 -6.58734 5.11309 2.94343 -26.158 -13.7857 -22.313 -0.521645 -9.75272 -88.7424 -50.4615 80.6993 -14.4765 2.10781 -29.611 5.64069 2.49109 -15.0513 4.06776 -0.447968 -10.7165 3.94839 2.87857 -1.81211 -1.42876 3.146 0.51686 
14.5443 99.2133 -24.4055 -141.973 -80.4459 -144.744 -173.389 -8.4664 85.9031 -20.9257 8.54101 -2.16822 79.9437 11.1831 -1.41995 17.6897 -9.06157 8.11581 177.828 14.9505 90.3068 -7.70319 -19.4362 -2.40866 59.9017 -0.273712 -0.244588 26.4568 0.519055 1.75738 -0.309249 8.03736 -89.7264 10.8008 -0.48936 0.591194 -0.87024 -0.462865 0.612152 -23.4055 -0.644413 0.416788 -3.39282 -0.644419 0.416781 87.8953 -33.6087 -109.39 43.9092 -4.94921 7.10569 3.5228 -25.6052 -12.8874 -23.3379 -0.476489 -9.68477 -88.6577 -50.1169 80.7588 -17.2749 -0.181851 -33.9751 8.75409 7.79772 -17.1837 4.37105 -0.518442 -11.6256 4.55159 2.35054 -3.14658 -2.29426 2.86529 2.01475 
12.9668 98.4738 -16.3593 -159.301 -82.6439 -160.673 -171.799 -14.1159 89.1935 -18.166 11.5654 -1.30516 81.3976 13.5311 -1.62235 20.4892 -8.1474 10.7354 178.195 16.128 91.3321 -13.7715 -17.0371 -2.02955 55.2211 2.45863 0.420071 22.2031 1.53982 3.85279 -0.444756 7.87563 -89.9846 11.1227 -0.878115 0.114561 -0.547928 -0.872219 0.153103 -23.0854 -0.87194 -0.154661 -3.07279 -0.871946 -0.154667 88.8084 -33.0545 -107.896 45.2467 -4.29097 6.68104 4.7296 -23.9632 -10.5469 -21.3546 -0.410448 -9.90814 -89.0392 -52.5465 80.6594 -21.6305 -2.31284 -32.4491 11.2116 11.294 -17.721 3.93262 -0.501323 -11.8411 6.16135 1.99634 -1.55445 -3.0614 2.23576 2.03646 
11.3781 98.8596 -7.99619 177.88 -82.3752 179.212 -170.02 -16.4234 93.9529 -21.7298 15.1025 1.05889 74.8338 10.4087 0.272707 31.0649 -1.50281 12.6069 177.365 15.1049 93.7853 -23.2176 -15.5573 -0.408329 59.7361 0.271373 -1.2173 20.117 2.12686 4.11088 -0.477026 7.80912 -90.3437 11.2542 -1.1093 -0.573776 -0.416414 -1.13346 -0.524403 -22.9533 -0.88557 -0.880644 -2.94059 -0.885564 -0.880646 88.8649 -32.6348 -107.949 45.0428 -4.48232 5.74747 4.04697 -23.4103 -10.825 -21.1216 -0.393158 -9.86629 -88.8766 -53.1274 81.0043 -22.6952 1.93211 -24.9824 7.09204 7.11853 -11.7762 3.19443 -0.368183 -10.167 5.71352 1.66407 0.505206 -2.58952 1.53223 1.41333 
9.79207 99.6557 -1.0734 153.154 -80.7846 156.273 -170.239 -8.25892 97.6338 -40.1735 19.5591 3.64133 65.6763 4.32262 0.942546 25.183 -4.43376 8.93778 176.218 9.47785 95.4063 -22.9634 -12.4826 1.47382 63.6321 -2.00544 -2.04781 20.7755 1.66122 5.40107 -0.3641 7.76479 -90.5241 11.3395 -0.968775 -0.946688 -0.331426 -1.00951 -0.903141 -22.8653 -0.639496 -1.19406 -2.85265 -0.639495 -1.19406 88.6242 -32.4314 -108.485 43.3207 -4.92359 3.79729 4.09958 -23.6714 -12.5336 -22.521 -0.327284 -10.0785 -88.7795 -51.9361 80.924 -23.8276 7.94727 -17.2554 1.89568 7.22241 -3.44426 -2.34048 -0.0916198 -8.281 5.13367 0.351865 1.01427 -3.41196 0.15642 0.240214 
8.91321 99.9095 3.83208 140.575 -78.3283 144.802 -172.13 4.43785 98.3825 -58.4278 13.3792 4.63368 58.1023 -1.182 0.0325827 8.09687 -11.807 0.459855 175.444 4.67109 96.3398 -22.0485 -9.7411 2.84518 65.8849 -3.18686 -0.789342 23.0386 1.15197 4.52251 0.0316051 7.989 -90.6694 10.8923 -0.246445 -1.3075 -0.779303 -0.303752 -1.2954 -23.309 0.157863 -1.32113 -3.29635 0.157863 -1.32113 88.8549 -31.1369 -108.557 40.583 -5.6377 -0.453049 2.45159 -25.1461 -14.4317 -23.5875 -0.388732 -10.0134 -89.3495 -53.5773 80.4048 -23.9711 7.51031 -9.57475 0.838189 10.0918 -2.24963 -2.17924 -0.0921464 -6.49424 7.27351 -1.54494 1.88762 -3.09483 -1.89585 -0.00552619 
8.60369 100.239 7.93719 135.563 -76.7208 138.664 -172.632 13.1828 95.4816 -60.5986 7.9765 3.1153 65.394 3.90761 0.590851 9.24439 -12.6546 3.79572 175.175 1.03216 95.7097 -21.6979 -7.46835 2.66045 69.0986 -4.37432 -0.618766 21.3533 1.48151 5.44363 0.611127 8.1356 -90.5944 10.6074 0.943787 -1.26708 -1.06384 0.887109 -1.30738 -23.5988 1.28095 -0.924876 -3.5861 1.28095 -0.924879 88.1252 -31.0097 -110.017 35.2944 -5.91753 -4.18933 3.01116 -25.2278 -13.5678 -25.6666 -0.460266 -9.27614 -89.2425 -54.9999 80.8247 -25.2527 5.39614 -0.99015 2.30257 2.32182 -6.24952 -0.803107 -0.119928 -6.61532 6.34557 -3.39038 2.8852 -1.62992 -3.88429 -0.606879 
9.05464 100.249 12.0141 127.511 -75.9055 128.383 -173.94 17.0457 90.5577 -46.597 9.69729 0.72836 68.3795 6.27548 0.287684 13.4772 -10.4947 4.93 174.493 -0.903462 93.8354 -21.7361 -6.74886 2.02148 71.2901 -4.32757 -0.029628 23.2615 1.27123 3.40672 1.01002 8.108 -90.3686 10.6662 1.84181 -0.900714 -1.00384 1.80039 -0.980919 -23.549 2.02733 -0.30534 -3.5364 2.02734 -0.305338 88.3585 -29.3855 -110.264 32.8812 -5.99698 -8.16457 3.021 -24.6638 -12.9373 -24.7315 -0.510117 -8.95414 -88.1692 -53.7521 82.1371 -27.0328 5.17317 4.00903 2.48862 2.13509 -9.11287 -1.47172 -0.115419 -7.48196 4.85909 -4.43464 4.25503 -1.95994 -5.12495 -1.26541 
9.93124 100.05 16.3232 120.531 -75.7164 120.398 -174.983 16.9542 87.026 -23.3768 4.47902 -1.71731 63.7484 3.55964 -0.772503 12.9414 -10.4703 4.10579 174.865 -2.96593 93.539 -20.7965 -5.1095 1.10407 73.5283 -5.42339 -1.87779 24.8846 0.329078 6.12729 1.2796 8.026 -90.34 10.8327 2.39092 -0.899283 -0.836452 2.34902 -1.00369 -23.3891 2.55058 -0.138704 -3.37645 2.55058 -0.138705 88.8179 -27.6064 -110.125 31.0254 -6.96456 -11.8139 2.40192 -24.9351 -13.9099 -26.2266 -0.511261 -8.84423 -87.4729 -54.134 83.2003 -28.1779 4.06619 6.26463 3.02453 3.78173 -10.2159 -0.58717 -0.130398 -6.92859 4.38293 -4.59001 7.65855 -2.04125 -5.86454 -2.31538 
11.1364 99.426 21.1811 118.086 -76.1896 118.99 -176.062 15.8747 86.0679 -7.95565 -19.1529 -3.7255 62.4826 2.88309 -0.730426 12.4604 -11.019 4.67526 175.107 -5.23755 94.4579 -21.4092 -5.07573 1.17347 75.617 -7.21639 -3.06728 24.4676 0.583555 5.3146 1.61191 7.92984 -90.5775 11.0344 2.94121 -1.43101 -0.634177 2.87537 -1.55914 -23.195 3.23518 -0.480111 -3.18233 3.23518 -0.48011 89.2789 -26.5761 -109.639 31.2369 -7.39629 -13.986 0.894873 -26.6137 -16.4117 -25.3411 -0.455327 -9.79687 -87.6646 -56.4607 83.295 -28.8221 2.99028 7.03773 3.31148 1.04313 -10.2068 -1.21911 -0.118528 -7.27609 3.92609 -5.05276 10.9127 -1.88628 -6.85805 -2.81764 
12.3281 98.6546 27.3332 117.78 -76.241 119.614 -175.69 16.3046 85.884 -9.97837 -31.9884 -4.33917 63.3201 1.97614 -0.171189 8.96237 -13.4615 4.99797 175.102 -9.56819 95.0866 -20.8583 -5.46955 1.43953 76.7011 -8.47103 -3.45758 26.4667 0.200223 3.9398 1.78457 7.74714 -90.6906 11.4051 3.2287 -1.70114 -0.263162 3.15072 -1.84167 -22.8285 3.59053 -0.651125 -2.81583 3.59053 -0.651126 87.8178 -27.8069 -112.055 32.3781 -7.60724 -13.868 1.49671 -26.8385 -15.9032 -25.7849 -0.525738 -9.41901 -86.6077 -56.5098 84.7821 -30.0786 2.61939 6.59788 3.51597 0.313148 -10.0446 -3.00225 -0.0718528 -7.97405 2.86275 -5.0944 11.2551 -2.66024 -6.85213 -2.2244 
13.7952 98.9093 34.1268 116.746 -76.6464 117.949 -174.844 15.9698 85.2329 -16.1491 -26.3744 -4.85396 65.024 2.46908 2.12922 2.06814 -16.1082 1.6665 174.263 -11.9185 93.5795 -22.0979 -5.70715 1.30775 72.1599 -6.2277 -2.46702 34.6654 -2.29671 4.11788 1.88602 7.4928 -90.5192 11.9143 3.50573 -1.41355 0.2472 3.44011 -1.56662 -22.3254 3.76828 -0.293208 -2.31277 3.76828 -0.29321 86.1897 -29.4037 -114.512 35.8764 -8.30218 -12.879 3.82791 -26.8744 -11.8359 -23.6294 -0.52882 -9.74845 -85.5782 -56.0597 86.1689 -29.8276 2.50455 4.401 3.62506 -0.92917 -9.25596 -2.0075 -0.100074 -7.66203 1.6911 -4.71574 10.9744 -3.87728 -6.32813 -1.17961 
15.9163 99.6439 40.2667 115.829 -73.9876 115.379 -174.466 11.5609 83.3323 -18.739 -24.9331 -5.39369 69.0945 4.34803 -0.219612 3.15086 -15.98 2.6683 169.913 -9.22121 88.0766 -32.3701 -11.9327 2.33043 62.8197 -1.22504 -0.332464 38.9552 -3.59083 4.38159 1.7113 7.38769 -90.3127 12.1167 3.25407 -0.982891 0.449308 3.20767 -1.1253 -22.1186 3.39886 0.0416341 -2.10593 3.39887 0.0416334 86.1383 -29.7858 -114.424 40.2445 -8.84969 -9.74519 5.05702 -25.9827 -10.4009 -21.235 -0.395756 -10.8019 -85.2617 -54.0632 86.371 -29.6331 3.18938 1.60044 3.81528 -1.19783 -10.7966 -1.02861 -0.133205 -8.00741 -0.339079 -3.95849 12.0563 -5.28831 -5.51822 -1.77939 
18.0136 99.4866 44.4817 113.892 -68.8221 112.266 -175.077 8.26221 81.394 -21.2196 -20.3825 -4.59915 72.1226 5.66863 0.863139 4.03736 -15.1543 2.18914 168.629 -1.55043 84.3493 -48.9282 -23.743 0.0437781 55.9187 2.49794 2.83305 32.7231 -1.4634 1.12456 1.38565 7.48788 -90.3016 11.9106 2.61341 -0.882122 0.241902 2.57204 -0.996354 -22.3143 2.75761 -0.0553373 -2.30165 2.75761 -0.0553314 86.8609 -29.8974 -112.968 41.2023 -7.69016 -5.60842 3.67217 -25.672 -12.7905 -24.3167 -0.35215 -10.2542 -85.6831 -53.5 85.6895 -28.1985 1.80284 -2.95928 6.05913 4.59825 -14.705 -0.796864 -0.18022 -10.7441 -1.15921 -3.7733 13.8027 -4.89468 -5.47967 -1.98877 
19.4334 99.3983 47.3503 110.077 -59.8838 107.138 -175.561 4.71255 80.1044 -22.3334 -12.5583 -4.13799 73.2774 7.78287 1.67891 5.65829 -13.8346 1.63622 172.332 5.39032 84.9252 -58.6106 -21.3192 -3.12064 61.5429 -1.02606 -0.670534 28.0611 -0.132855 2.86494 0.909555 7.7143 -90.2702 11.4515 1.68354 -0.710097 -0.218609 1.65065 -0.783529 -22.7622 1.81908 -0.17116 -2.74954 1.8191 -0.171155 87.7457 -30.1064 -111.149 40.9098 -6.54521 -3.1793 3.54618 -23.9401 -12.0643 -24.3433 -0.368185 -9.595 -86.5154 -53.0496 84.4175 -26.5393 0.840448 -9.80211 8.69968 9.94294 -17.9515 -0.128984 -0.247664 -12.4815 -2.63542 -5.10805 14.493 -4.19869 -6.71902 -2.03457 
20.6241 99.9881 49.4589 105.867 -47.9116 102.816 -176.492 1.15438 80.6147 -21.0424 0.0371504 -2.53019 72.2489 8.60988 3.21411 7.0752 -13.0146 1.73207 175.875 8.79146 86.386 -53.2414 -2.89359 -4.20088 68.8145 -5.17881 -1.78951 19.625 2.09163 4.92935 0.357368 7.77667 -90.3805 11.3221 0.533902 -0.810862 -0.34899 0.497691 -0.833568 -22.8838 0.752899 -0.612925 -2.87112 0.752909 -0.612923 88.379 -29.9793 -109.964 41.3923 -6.70365 -0.502514 5.28338 -22.9538 -9.42065 -23.3284 -0.316703 -9.7749 -87.222 -53.3731 83.4423 -25.0981 1.33814 -14.3612 9.57075 11.1063 -20.1928 1.01401 -0.352703 -13.1956 -5.95658 -8.00045 14.3043 -4.03699 -9.183 -2.75355 
21.753 100.196 51.3611 101.56 -33.7447 98.4583 -177.441 -0.281282 81.2865 -21.5445 12.5552 -0.757158 72.7786 9.42335 3.37885 4.15658 -13.4974 -0.778514 178.061 11.0324 87.2901 -42.2823 -0.765785 -5.32199 72.3276 -7.6367 -2.96371 17.5833 3.40615 2.06963 -0.190183 7.76586 -90.4335 11.3394 -0.580465 -0.805144 -0.331602 -0.615343 -0.778822 -22.8651 -0.311665 -0.942365 -2.8525 -0.311683 -0.942371 88.9027 -30.0977 -108.886 42.6908 -5.88419 2.55749 5.04962 -22.5355 -9.35845 -24.0417 -0.39826 -9.04548 -87.8187 -52.9037 82.4993 -25.2448 3.05201 -17.9705 9.22069 12.5489 -19.3289 1.24842 -0.360926 -12.9088 -7.90491 -11.8188 11.8876 -3.40689 -12.604 -3.80104 
22.9866 100.005 53.1637 100.066 -21.4961 95.9085 -177.917 -0.596625 82.1037 -25.4812 24.1469 0.783568 73.8689 10.3143 3.23039 4.47421 -13.2123 -0.961778 -178.671 12.893 88.2032 -33.3895 -15.0483 -7.55493 69.6176 -6.55745 -2.53242 21.8741 1.99687 2.00989 -0.355042 7.87852 -90.4127 11.1135 -0.898367 -0.734114 -0.557349 -0.929759 -0.693879 -23.0923 -0.636186 -0.970158 -3.07962 -0.636198 -0.970162 89.2309 -30.8129 -107.954 43.3976 -6.2053 4.04908 5.11769 -24.677 -10.2478 -22.6479 -0.584479 -8.81354 -88.3323 -51.8902 81.5725 -25.5993 5.79895 -19.0163 7.3689 12.843 -16.7637 0.641986 -0.287159 -11.9399 -9.0337 -15.9881 6.86532 -2.54114 -16.3757 -4.37839 
